<svg width="519" height="153" viewBox="0 0 519 153" fill="none" xmlns="http://www.w3.org/2000/svg">
<g filter="url(#filter0_di_2534_13259)">
<path d="M46.3917 0.580788C47.1648 0.580988 47.9378 0.580875 48.7109 0.580476C50.8005 0.580274 52.8902 0.584416 54.9798 0.589358C57.167 0.593785 59.3541 0.594189 61.5413 0.595027C65.679 0.597219 69.8167 0.603011 73.9544 0.610107C78.6667 0.618013 83.379 0.621889 88.0913 0.625433C97.7812 0.632808 107.471 0.645227 117.161 0.66098C117.169 1.95232 117.173 3.24366 117.178 4.53502C117.181 5.07845 117.181 5.07845 117.184 5.63287C117.211 16.8263 113.201 27.1631 105.506 35.2735C105.34 35.4488 105.175 35.624 105.004 35.8046C98.1081 42.9486 88.227 46.9937 78.3809 47.3141C77.3433 47.3264 76.3063 47.3285 75.2687 47.3264C74.6838 47.3274 74.6838 47.3274 74.087 47.3284C73.2466 47.3298 72.4062 47.3305 71.5659 47.3307C69.7695 47.3319 67.9732 47.3394 66.1768 47.3466C62.8413 47.36 59.5058 47.3713 56.1703 47.3704C53.8413 47.3697 51.5126 47.3784 49.1836 47.3922C48.3027 47.3959 47.4217 47.3965 46.5408 47.3937C37.1891 47.3678 29.391 49.0868 22.5064 55.7584C17.5098 61.1862 14.9568 67.6044 14.9791 74.941C14.9705 75.4979 14.9705 75.4979 14.9618 76.0661C14.9578 82.5828 17.6857 89.5024 22.1587 94.2822C26.4813 98.4771 31.1536 101.001 36.9871 102.379C37.3155 102.473 37.3155 102.473 37.6505 102.568C38.494 102.753 39.2575 102.779 40.1211 102.782C40.467 102.784 40.813 102.786 41.1695 102.788C41.5469 102.789 41.9243 102.789 42.3132 102.789C42.7125 102.791 43.1118 102.793 43.5232 102.795C44.8465 102.8 46.1698 102.802 47.4931 102.804C48.4145 102.806 49.3359 102.808 50.2572 102.81C51.9443 102.814 53.6314 102.816 55.3186 102.817C57.7915 102.818 60.2643 102.825 62.7373 102.835C64.8867 102.843 67.0361 102.846 69.1855 102.847C70.0956 102.848 71.0056 102.851 71.9156 102.855C73.1943 102.861 74.4728 102.861 75.7516 102.858C76.1225 102.862 76.4935 102.865 76.8757 102.868C82.5513 102.837 88.1156 100.989 92.7909 97.7879C93.2198 97.4963 93.2198 97.4963 93.6573 97.1988C99.1308 93.1625 101.827 87.5638 103.74 81.188C83.5762 81.188 63.4127 81.188 42.6381 81.188C42.6381 77.2252 42.6381 73.2624 42.6381 69.1796C67.1141 69.1796 91.5901 69.1796 116.808 69.1796C116.837 76.435 116.866 83.6903 116.896 91.1656C116.909 93.443 116.922 95.7204 116.935 98.0669C116.941 100.882 116.941 100.882 116.943 102.207C116.945 103.354 116.953 104.502 116.963 105.649C117.008 112.139 116.83 118.637 114.048 124.63C113.865 125.043 113.865 125.043 113.679 125.463C111.984 129.206 109.913 132.437 107.272 135.579C106.935 136.011 106.935 136.011 106.592 136.452C100.14 144.313 89.903 148.369 80.0761 149.707C77.4254 149.93 74.7667 149.887 72.109 149.867C71.339 149.867 70.569 149.867 69.7989 149.868C67.732 149.868 65.6653 149.86 63.5984 149.85C61.4297 149.841 59.2609 149.84 57.0921 149.839C52.9958 149.834 48.8995 149.823 44.8032 149.808C40.1353 149.792 35.4673 149.785 30.7993 149.778C21.2067 149.763 11.6141 149.738 2.02146 149.707C2.00915 148.189 2.00178 146.671 1.99524 145.154C1.98997 144.515 1.98997 144.515 1.98459 143.863C1.9487 132.732 6.34632 122.459 14.1934 114.556C15.5185 113.283 16.9335 112.115 18.3564 110.954C19.0777 110.357 19.746 109.769 20.3873 109.09C19.9133 108.731 19.9133 108.731 19.4298 108.364C11.571 102.344 5.70804 94.7388 3.39006 84.9848C3.3006 84.6174 3.3006 84.6174 3.20933 84.2425C3.04761 83.5778 2.88764 82.9127 2.72783 82.2476C2.66436 82.0267 2.60089 81.8058 2.53549 81.5783C2.34377 80.6921 2.32572 79.8739 2.32029 78.967C2.31725 78.5884 2.31421 78.2098 2.31108 77.8198C2.30958 77.4061 2.30807 76.9924 2.30652 76.5661C2.30364 76.1288 2.30075 75.6916 2.29777 75.2411C2.28899 73.7904 2.2831 72.3397 2.27807 70.889C2.27617 70.3871 2.27428 69.8852 2.27237 69.3833C2.26473 67.2911 2.25811 65.199 2.25414 63.1069C2.24843 60.1247 2.23678 57.1426 2.21656 54.1604C2.20278 52.0558 2.19598 49.9513 2.19412 47.8467C2.19285 46.5943 2.18875 45.3421 2.17714 44.0898C2.12803 38.5212 2.31587 33.5009 4.14059 28.2097C4.28163 27.7801 4.42267 27.3505 4.56799 26.908C6.09941 22.3952 8.81593 18.3729 11.9107 14.7885C12.1366 14.5076 12.3624 14.2267 12.595 13.9373C18.2326 7.20003 26.4193 3.18485 34.868 1.36736C35.1071 1.30711 35.3462 1.24687 35.5925 1.1848C39.1448 0.3936 42.7743 0.567697 46.3917 0.580788Z" fill="white"/>
</g>
<path d="M187.736 104.478C184.451 104.478 181.443 104.074 178.714 103.265C176.035 102.456 173.635 101.268 171.512 99.7016C169.44 98.1348 167.569 96.2394 165.902 94.0156L173.028 85.9035C175.505 89.3404 177.956 91.6906 180.382 92.9542C182.859 94.1672 185.537 94.7737 188.418 94.7737C189.985 94.7737 191.375 94.5715 192.588 94.1672C193.852 93.7123 194.837 93.0805 195.545 92.2719C196.252 91.4632 196.606 90.5029 196.606 89.3909C196.606 88.5823 196.429 87.8494 196.075 87.1923C195.722 86.4847 195.216 85.8782 194.559 85.3728C193.902 84.8168 193.119 84.3367 192.209 83.9323C191.299 83.4775 190.288 83.0984 189.176 82.7951C188.064 82.4413 186.851 82.1634 185.537 81.9612C182.707 81.3041 180.23 80.5207 178.108 79.611C175.985 78.6507 174.216 77.4882 172.801 76.1235C171.385 74.7083 170.324 73.1163 169.616 71.3473C168.959 69.5783 168.631 67.5819 168.631 65.358C168.631 63.0836 169.136 60.9861 170.147 59.0654C171.158 57.0943 172.548 55.4011 174.317 53.9859C176.136 52.5707 178.209 51.4841 180.534 50.7259C182.909 49.9678 185.411 49.5887 188.039 49.5887C191.274 49.5887 194.104 49.9678 196.53 50.7259C198.956 51.4335 201.054 52.4697 202.823 53.8343C204.642 55.1989 206.159 56.8668 207.372 58.838L200.169 65.8129C199.108 64.3977 197.945 63.2099 196.682 62.2496C195.469 61.2893 194.13 60.5817 192.664 60.1268C191.249 59.6214 189.783 59.3687 188.267 59.3687C186.599 59.3687 185.158 59.5961 183.945 60.051C182.732 60.4554 181.772 61.0619 181.064 61.8706C180.407 62.6792 180.079 63.6648 180.079 64.8273C180.079 65.7371 180.306 66.5457 180.761 67.2533C181.216 67.9609 181.873 68.5927 182.732 69.1487C183.591 69.6541 184.628 70.109 185.841 70.5133C187.054 70.9177 188.393 71.2715 189.859 71.5747C192.639 72.1307 195.14 72.8635 197.364 73.7733C199.588 74.6831 201.483 75.795 203.05 77.1091C204.668 78.3727 205.906 79.8889 206.765 81.6579C207.624 83.3764 208.054 85.3223 208.054 87.4956C208.054 91.0841 207.195 94.1419 205.476 96.6691C203.758 99.1962 201.382 101.142 198.35 102.507C195.317 103.821 191.779 104.478 187.736 104.478ZM227.073 91.6653L223.888 82.7951L242.842 63.6143H257.019L227.073 91.6653ZM216.838 103.72V47.6176H227.603V103.72H216.838ZM243.979 103.72L229.574 85.6002L237.156 79.5352L256.943 103.72H243.979ZM263.798 103.72V63.6143H274.564V103.72H263.798ZM269.105 55.3506C267.033 55.3506 265.416 54.8452 264.253 53.8343C263.091 52.8235 262.51 51.383 262.51 49.5129C262.51 47.7945 263.091 46.4046 264.253 45.3432C265.466 44.2312 267.084 43.6753 269.105 43.6753C271.178 43.6753 272.795 44.206 273.957 45.2674C275.12 46.2782 275.701 47.6934 275.701 49.5129C275.701 51.2819 275.095 52.6971 273.882 53.7585C272.719 54.8199 271.127 55.3506 269.105 55.3506ZM286.138 103.72V47.6176H296.904V103.72H286.138ZM307.905 103.72V47.6176H318.67V103.72H307.905ZM353.968 104.478C349.874 104.478 346.108 103.796 342.671 102.431C339.285 101.016 336.353 99.0698 333.877 96.5932C331.4 94.1167 329.48 91.2105 328.115 87.8747C326.801 84.5389 326.144 80.9251 326.144 77.0333C326.144 73.1415 326.826 69.553 328.191 66.2678C329.606 62.9319 331.577 60.051 334.104 57.625C336.682 55.1484 339.689 53.2278 343.126 51.8631C346.563 50.4985 350.328 49.8162 354.422 49.8162C357.253 49.8162 359.957 50.1952 362.534 50.9534C365.112 51.7115 367.462 52.7476 369.585 54.0617C371.708 55.3758 373.477 56.8921 374.892 58.6106L367.841 66.0403C366.527 64.7767 365.137 63.7154 363.672 62.8561C362.257 61.9464 360.765 61.264 359.199 60.8092C357.632 60.3037 356.015 60.051 354.347 60.051C351.971 60.051 349.773 60.4806 347.751 61.3399C345.78 62.1991 344.036 63.3868 342.52 64.9031C341.003 66.4194 339.816 68.2136 338.956 70.2859C338.148 72.3581 337.743 74.6073 337.743 77.0333C337.743 79.4088 338.173 81.6579 339.032 83.7807C339.942 85.853 341.155 87.6725 342.671 89.2393C344.238 90.7556 346.058 91.9686 348.13 92.8784C350.202 93.7376 352.426 94.1672 354.801 94.1672C356.469 94.1672 358.061 93.9145 359.578 93.4091C361.094 92.9036 362.408 92.196 363.52 91.2863C364.683 90.326 365.567 89.214 366.174 87.9505C366.831 86.6869 367.159 85.3475 367.159 83.9323V82.1128L368.675 84.2356H353.513V74.7589H378.076C378.127 75.3149 378.177 75.9972 378.228 76.8059C378.329 77.6145 378.38 78.4232 378.38 79.2319C378.43 79.99 378.455 80.5965 378.455 81.0514C378.455 84.4883 377.824 87.6472 376.56 90.5281C375.347 93.4091 373.629 95.8856 371.405 97.9579C369.231 100.03 366.654 101.647 363.672 102.81C360.69 103.922 357.455 104.478 353.968 104.478ZM400.772 104.478C397.841 104.478 395.314 103.846 393.191 102.583C391.119 101.268 389.501 99.4236 388.339 97.0481C387.227 94.6221 386.671 91.7159 386.671 88.3295V63.6143H397.437V86.5858C397.437 88.4054 397.74 89.9974 398.346 91.3621C398.953 92.6762 399.812 93.687 400.924 94.3946C402.036 95.1022 403.401 95.456 405.018 95.456C406.18 95.456 407.267 95.2791 408.278 94.9253C409.289 94.521 410.148 93.965 410.856 93.2574C411.563 92.5498 412.119 91.7159 412.524 90.7556C412.928 89.7953 413.13 88.7592 413.13 87.6472V63.6143H423.896V103.72H413.661L413.282 95.456L415.253 94.5463C414.646 96.4163 413.635 98.1095 412.22 99.6258C410.805 101.142 409.112 102.33 407.141 103.189C405.17 104.048 403.047 104.478 400.772 104.478ZM434.728 103.72V63.6143H445.115L445.494 76.5026L443.674 73.8491C444.281 71.7769 445.266 69.9068 446.631 68.2389C447.995 66.5205 449.588 65.1811 451.407 64.2208C453.277 63.2605 455.223 62.7803 457.245 62.7803C458.104 62.7803 458.938 62.8561 459.747 63.0078C460.555 63.1594 461.238 63.3363 461.794 63.5385L458.913 75.3654C458.306 75.0621 457.573 74.8094 456.714 74.6073C455.855 74.3545 454.97 74.2282 454.061 74.2282C452.848 74.2282 451.71 74.4556 450.649 74.9105C449.638 75.3149 448.754 75.9214 447.995 76.73C447.237 77.4882 446.631 78.3979 446.176 79.4593C445.772 80.5207 445.569 81.6832 445.569 82.9468V103.72H434.728ZM481.769 104.478C478.837 104.478 476.31 103.846 474.187 102.583C472.115 101.268 470.498 99.4236 469.335 97.0481C468.223 94.6221 467.667 91.7159 467.667 88.3295V63.6143H478.433V86.5858C478.433 88.4054 478.736 89.9974 479.343 91.3621C479.949 92.6762 480.808 93.687 481.92 94.3946C483.032 95.1022 484.397 95.456 486.014 95.456C487.177 95.456 488.263 95.2791 489.274 94.9253C490.285 94.521 491.144 93.965 491.852 93.2574C492.56 92.5498 493.116 91.7159 493.52 90.7556C493.924 89.7953 494.126 88.7592 494.126 87.6472V63.6143H504.892V103.72H494.657L494.278 95.456L496.249 94.5463C495.643 96.4163 494.632 98.1095 493.217 99.6258C491.801 101.142 490.108 102.33 488.137 103.189C486.166 104.048 484.043 104.478 481.769 104.478Z" fill="white"/>
<defs>
<filter id="filter0_di_2534_13259" x="0.57162" y="0.555664" width="118.029" height="152.154" filterUnits="userSpaceOnUse" color-interpolation-filters="sRGB">
<feFlood flood-opacity="0" result="BackgroundImageFix"/>
<feColorMatrix in="SourceAlpha" type="matrix" values="0 0 0 0 0 0 0 0 0 0 0 0 0 0 0 0 0 0 127 0" result="hardAlpha"/>
<feOffset dy="1.41275"/>
<feGaussianBlur stdDeviation="0.706377"/>
<feComposite in2="hardAlpha" operator="out"/>
<feColorMatrix type="matrix" values="0 0 0 0 0 0 0 0 0 0 0 0 0 0 0 0 0 0 0.25 0"/>
<feBlend mode="normal" in2="BackgroundImageFix" result="effect1_dropShadow_2534_13259"/>
<feBlend mode="normal" in="SourceGraphic" in2="effect1_dropShadow_2534_13259" result="shape"/>
<feColorMatrix in="SourceAlpha" type="matrix" values="0 0 0 0 0 0 0 0 0 0 0 0 0 0 0 0 0 0 127 0" result="hardAlpha"/>
<feOffset dy="1.41275"/>
<feGaussianBlur stdDeviation="0.706377"/>
<feComposite in2="hardAlpha" operator="arithmetic" k2="-1" k3="1"/>
<feColorMatrix type="matrix" values="0 0 0 0 0 0 0 0 0 0 0 0 0 0 0 0 0 0 0.25 0"/>
<feBlend mode="normal" in2="shape" result="effect2_innerShadow_2534_13259"/>
</filter>
</defs>
</svg>
