<svg width="433" height="127" viewBox="0 0 433 127" fill="none" xmlns="http://www.w3.org/2000/svg">
<g filter="url(#filter0_di_2455_10064)">
<path d="M39.0061 0.0209368C39.6503 0.0211031 40.2946 0.0210093 40.9388 0.0206764C42.6801 0.020508 44.4215 0.0239598 46.1629 0.028078C47.9855 0.0317672 49.8081 0.0321043 51.6308 0.0328021C55.0789 0.0346289 58.5269 0.0394558 61.975 0.0453695C65.9019 0.0519576 69.8289 0.0551877 73.7558 0.0581404C81.8307 0.064287 89.9056 0.0746355 97.9805 0.0877633C97.987 1.16388 97.9908 2.24 97.9943 3.31613C97.9971 3.76899 97.9971 3.76899 97.9999 4.231C98.0222 13.5588 94.6804 22.1729 88.2678 28.9315C88.1298 29.0776 87.9918 29.2236 87.8496 29.3741C82.1031 35.3274 73.8689 38.6984 65.6637 38.9653C64.7991 38.9756 63.9349 38.9774 63.0703 38.9756C62.5828 38.9764 62.5828 38.9764 62.0855 38.9773C61.3852 38.9784 60.6849 38.979 59.9846 38.9792C58.4876 38.9802 56.9907 38.9865 55.4937 38.9925C52.7141 39.0036 49.9346 39.013 47.1549 39.0122C45.2141 39.0117 43.2735 39.0189 41.3327 39.0305C40.5986 39.0335 39.8645 39.034 39.1303 39.0317C31.3373 39.0101 24.8388 40.4426 19.1017 46.0023C14.9378 50.5255 12.8104 55.874 12.8289 61.9878C12.8218 62.4519 12.8218 62.4519 12.8145 62.9253C12.8112 68.3559 15.0844 74.1223 18.812 78.1054C22.4141 81.6012 26.3077 83.7043 31.169 84.853C31.4426 84.9309 31.4426 84.9309 31.7218 85.0103C32.4247 85.1646 33.0609 85.1862 33.7806 85.1887C34.0689 85.1904 34.3572 85.1921 34.6543 85.1938C34.9688 85.1941 35.2833 85.1945 35.6073 85.1948C35.9401 85.1963 36.2729 85.1977 36.6157 85.1992C37.7185 85.2035 38.8212 85.2055 39.924 85.2072C40.6918 85.2088 41.4596 85.2105 42.2274 85.2122C43.6333 85.215 45.0392 85.2168 46.4452 85.2177C48.5059 85.219 50.5666 85.2241 52.6274 85.2327C54.4186 85.2399 56.2098 85.2421 58.001 85.2426C58.7593 85.2435 59.5177 85.2458 60.276 85.2497C61.3416 85.2548 62.4071 85.2542 63.4727 85.2523C63.7818 85.255 64.091 85.2577 64.4095 85.2605C69.1391 85.2343 73.776 83.6943 77.6721 81.0268C78.0295 80.7838 78.0295 80.7838 78.3941 80.5359C82.9554 77.1724 85.2022 72.5068 86.7962 67.1936C69.9932 67.1936 53.1903 67.1936 35.8781 67.1936C35.8781 63.8913 35.8781 60.589 35.8781 57.1866C56.2748 57.1866 76.6714 57.1866 97.6862 57.1866C97.7104 63.2327 97.7347 69.2789 97.7597 75.5083C97.7705 77.4061 97.7812 79.304 97.7922 81.2594C97.7975 83.6055 97.7975 83.6055 97.7985 84.7093C97.8008 85.6655 97.8075 86.6216 97.8153 87.5778C97.8527 92.9862 97.7049 98.4012 95.3868 103.395C95.2342 103.739 95.2342 103.739 95.0786 104.09C93.6668 107.209 91.9405 109.901 89.7394 112.519C89.4588 112.88 89.4588 112.88 89.1726 113.247C83.7965 119.798 75.2655 123.178 67.0765 124.292C64.8675 124.478 62.6519 124.442 60.4372 124.426C59.7955 124.426 59.1538 124.426 58.5121 124.427C56.7897 124.427 55.0674 124.42 53.345 124.412C51.5377 124.404 49.7304 124.404 47.9231 124.402C44.5095 124.399 41.096 124.389 37.6824 124.377C33.7924 124.364 29.9024 124.358 26.0124 124.352C18.0186 124.339 10.0247 124.319 2.0309 124.292C2.02064 123.028 2.0145 121.763 2.00906 120.498C2.00466 119.966 2.00466 119.966 2.00018 119.423C1.97027 110.147 5.63496 101.586 12.1742 95.0002C13.2785 93.9397 14.4576 92.9658 15.6434 91.9984C16.2444 91.5007 16.8013 91.0112 17.3357 90.4452C16.9408 90.1459 16.9408 90.1459 16.5378 89.8405C9.98886 84.824 5.10305 78.486 3.17141 70.3576C3.09685 70.0514 3.09685 70.0514 3.02079 69.7391C2.88603 69.1851 2.75272 68.6309 2.61955 68.0766C2.56665 67.8925 2.51376 67.7085 2.45927 67.5188C2.29949 66.7804 2.28445 66.0985 2.27993 65.3428C2.2774 65.0273 2.27487 64.7118 2.27226 64.3868C2.271 64.042 2.26975 63.6972 2.26846 63.342C2.26605 62.9777 2.26364 62.6133 2.26116 62.2379C2.25385 61.0289 2.24894 59.82 2.24475 58.6111C2.24317 58.1928 2.24158 57.7746 2.24 57.3563C2.23363 55.6129 2.22812 53.8695 2.2248 52.1261C2.22005 49.6408 2.21034 47.1558 2.19349 44.6706C2.18201 42.9168 2.17634 41.1631 2.17479 39.4092C2.17373 38.3656 2.17031 37.3221 2.16063 36.2784C2.11971 31.6379 2.27624 27.4544 3.79684 23.045C3.91438 22.687 4.03191 22.3291 4.15301 21.9602C5.42919 18.1996 7.69296 14.8477 10.272 11.8607C10.4602 11.6266 10.6483 11.3925 10.8422 11.1514C15.5402 5.53697 22.3624 2.19099 29.403 0.676411C29.6023 0.626209 29.8015 0.576006 30.0068 0.524283C32.967 -0.135054 35.9916 0.0100275 39.0061 0.0209368Z" fill="url(#paint0_linear_2455_10064)"/>
</g>
<path d="M156.704 86.3515C153.967 86.3515 151.461 86.0146 149.186 85.3407C146.954 84.6668 144.953 83.677 143.184 82.3713C141.457 81.0656 139.899 79.4862 138.509 77.6329L144.448 70.8729C146.512 73.7369 148.554 75.6955 150.576 76.7484C152.64 77.7593 154.872 78.2647 157.273 78.2647C158.579 78.2647 159.737 78.0962 160.748 77.7593C161.801 77.3802 162.622 76.8537 163.212 76.1798C163.801 75.5059 164.096 74.7057 164.096 73.7791C164.096 73.1052 163.949 72.4944 163.654 71.9469C163.359 71.3572 162.938 70.8518 162.39 70.4306C161.843 69.9673 161.19 69.5672 160.432 69.2302C159.674 68.8512 158.831 68.5353 157.905 68.2826C156.978 67.9877 155.967 67.7561 154.872 67.5876C152.514 67.0401 150.45 66.3872 148.681 65.6291C146.912 64.8288 145.438 63.8601 144.258 62.7229C143.079 61.5436 142.195 60.2168 141.605 58.7427C141.057 57.2685 140.784 55.6048 140.784 53.7516C140.784 51.8563 141.205 50.1083 142.047 48.5078C142.889 46.8652 144.048 45.4542 145.522 44.2749C147.038 43.0956 148.765 42.19 150.702 41.5582C152.682 40.9265 154.767 40.6106 156.957 40.6106C159.653 40.6106 162.011 40.9265 164.033 41.5582C166.055 42.1479 167.803 43.0113 169.277 44.1485C170.793 45.2857 172.057 46.6757 173.068 48.3183L167.066 54.1307C166.181 52.9514 165.212 51.9616 164.159 51.1613C163.149 50.3611 162.032 49.7714 160.811 49.3923C159.632 48.9711 158.41 48.7605 157.147 48.7605C155.757 48.7605 154.556 48.9501 153.545 49.3291C152.535 49.6661 151.734 50.1715 151.145 50.8454C150.597 51.5193 150.323 52.3406 150.323 53.3094C150.323 54.0675 150.513 54.7414 150.892 55.3311C151.271 55.9207 151.819 56.4472 152.535 56.9105C153.251 57.3317 154.114 57.7108 155.125 58.0477C156.136 58.3847 157.252 58.6795 158.473 58.9322C160.79 59.3955 162.875 60.0062 164.728 60.7644C166.581 61.5225 168.161 62.4491 169.466 63.5442C170.814 64.5972 171.846 65.8607 172.562 67.3349C173.278 68.7669 173.636 70.3885 173.636 72.1996C173.636 75.19 172.92 77.7382 171.488 79.8442C170.056 81.9501 168.076 83.5717 165.549 84.7089C163.022 85.804 160.074 86.3515 156.704 86.3515ZM189.485 75.6744L186.831 68.2826L202.626 52.2985H214.44L189.485 75.6744ZM180.956 85.7197V38.9679H189.927V85.7197H180.956ZM203.574 85.7197L191.57 70.6202L197.888 65.5659L214.377 85.7197H203.574ZM220.09 85.7197V52.2985H229.061V85.7197H220.09ZM224.512 45.4121C222.785 45.4121 221.438 44.9909 220.469 44.1485C219.5 43.3062 219.016 42.1058 219.016 40.5474C219.016 39.1154 219.5 37.9571 220.469 37.0726C221.48 36.146 222.828 35.6827 224.512 35.6827C226.239 35.6827 227.587 36.1249 228.556 37.0094C229.524 37.8518 230.009 39.0311 230.009 40.5474C230.009 42.0215 229.503 43.2009 228.492 44.0854C227.524 44.9699 226.197 45.4121 224.512 45.4121ZM238.706 85.7197V38.9679H247.677V85.7197H238.706ZM256.845 85.7197V38.9679H265.816V85.7197H256.845ZM295.231 86.3515C291.819 86.3515 288.681 85.7829 285.817 84.6457C282.995 83.4664 280.552 81.8448 278.489 79.781C276.425 77.7172 274.824 75.2953 273.687 72.5155C272.592 69.7357 272.044 66.7242 272.044 63.481C272.044 60.2379 272.613 57.2475 273.75 54.5097C274.93 51.7299 276.572 49.3291 278.678 47.3074C280.826 45.2436 283.332 43.6431 286.196 42.5059C289.06 41.3687 292.198 40.8001 295.61 40.8001C297.968 40.8001 300.222 41.116 302.37 41.7478C304.518 42.3796 306.476 43.243 308.245 44.3381C310.014 45.4332 311.489 46.6967 312.668 48.1288L306.792 54.3202C305.697 53.2672 304.539 52.3828 303.318 51.6667C302.138 50.9086 300.896 50.34 299.59 49.9609C298.284 49.5397 296.937 49.3291 295.547 49.3291C293.567 49.3291 291.735 49.6872 290.05 50.4032C288.408 51.1192 286.954 52.109 285.691 53.3725C284.427 54.6361 283.438 56.1313 282.721 57.8582C282.048 59.5851 281.711 61.4593 281.711 63.481C281.711 65.4606 282.069 67.3349 282.785 69.1039C283.543 70.8308 284.554 72.347 285.817 73.6527C287.123 74.9163 288.639 75.9271 290.366 76.6853C292.093 77.4013 293.946 77.7593 295.926 77.7593C297.316 77.7593 298.642 77.5487 299.906 77.1275C301.17 76.7063 302.265 76.1167 303.191 75.3585C304.16 74.5583 304.897 73.6317 305.402 72.5787C305.95 71.5257 306.224 70.4096 306.224 69.2302V67.714L307.487 69.483H294.852V61.5857H315.321C315.364 62.049 315.406 62.6176 315.448 63.2915C315.532 63.9654 315.574 64.6393 315.574 65.3132C315.616 65.945 315.637 66.4504 315.637 66.8295C315.637 69.6936 315.111 72.326 314.058 74.7267C313.047 77.1275 311.615 79.1913 309.762 80.9182C307.951 82.6451 305.803 83.9929 303.318 84.9616C300.833 85.8882 298.137 86.3515 295.231 86.3515ZM334.235 86.3515C331.792 86.3515 329.686 85.825 327.917 84.7721C326.19 83.677 324.842 82.1396 323.874 80.1601C322.947 78.1384 322.484 75.7165 322.484 72.8946V52.2985H331.455V71.4415C331.455 72.9578 331.708 74.2845 332.213 75.4217C332.719 76.5168 333.435 77.3592 334.361 77.9488C335.288 78.5385 336.425 78.8333 337.773 78.8333C338.742 78.8333 339.647 78.6859 340.489 78.3911C341.332 78.0541 342.048 77.5908 342.638 77.0011C343.227 76.4115 343.69 75.7165 344.027 74.9163C344.364 74.116 344.533 73.2526 344.533 72.326V52.2985H353.504V85.7197H344.975L344.659 78.8333L346.302 78.0752C345.796 79.6336 344.954 81.0445 343.775 82.3081C342.595 83.5717 341.184 84.5615 339.542 85.2775C337.899 85.9935 336.13 86.3515 334.235 86.3515ZM362.531 85.7197V52.2985H371.187L371.502 63.0388L369.986 60.8276C370.492 59.1007 371.313 57.5423 372.45 56.1524C373.587 54.7203 374.914 53.6042 376.43 52.8039C377.989 52.0037 379.61 51.6036 381.295 51.6036C382.011 51.6036 382.706 51.6667 383.38 51.7931C384.054 51.9194 384.622 52.0669 385.086 52.2353L382.685 62.0911C382.18 61.8384 381.569 61.6278 380.853 61.4593C380.137 61.2487 379.4 61.1434 378.642 61.1434C377.631 61.1434 376.683 61.333 375.799 61.7121C374.956 62.049 374.219 62.5544 373.587 63.2283C372.956 63.8601 372.45 64.6182 372.071 65.5027C371.734 66.3872 371.566 67.356 371.566 68.4089V85.7197H362.531ZM401.732 86.3515C399.289 86.3515 397.183 85.825 395.414 84.7721C393.687 83.677 392.339 82.1396 391.371 80.1601C390.444 78.1384 389.981 75.7165 389.981 72.8946V52.2985H398.952V71.4415C398.952 72.9578 399.205 74.2845 399.71 75.4217C400.215 76.5168 400.931 77.3592 401.858 77.9488C402.785 78.5385 403.922 78.8333 405.27 78.8333C406.238 78.8333 407.144 78.6859 407.986 78.3911C408.829 78.0541 409.545 77.5908 410.134 77.0011C410.724 76.4115 411.187 75.7165 411.524 74.9163C411.861 74.116 412.03 73.2526 412.03 72.326V52.2985H421.001V85.7197H412.472L412.156 78.8333L413.799 78.0752C413.293 79.6336 412.451 81.0445 411.272 82.3081C410.092 83.5717 408.681 84.5615 407.039 85.2775C405.396 85.9935 403.627 86.3515 401.732 86.3515Z" fill="#009C98"/>
<defs>
<filter id="filter0_di_2455_10064" x="0.822704" y="0" width="98.3546" height="126.795" filterUnits="userSpaceOnUse" color-interpolation-filters="sRGB">
<feFlood flood-opacity="0" result="BackgroundImageFix"/>
<feColorMatrix in="SourceAlpha" type="matrix" values="0 0 0 0 0 0 0 0 0 0 0 0 0 0 0 0 0 0 127 0" result="hardAlpha"/>
<feOffset dy="1.1773"/>
<feGaussianBlur stdDeviation="0.588648"/>
<feComposite in2="hardAlpha" operator="out"/>
<feColorMatrix type="matrix" values="0 0 0 0 0 0 0 0 0 0 0 0 0 0 0 0 0 0 0.25 0"/>
<feBlend mode="normal" in2="BackgroundImageFix" result="effect1_dropShadow_2455_10064"/>
<feBlend mode="normal" in="SourceGraphic" in2="effect1_dropShadow_2455_10064" result="shape"/>
<feColorMatrix in="SourceAlpha" type="matrix" values="0 0 0 0 0 0 0 0 0 0 0 0 0 0 0 0 0 0 127 0" result="hardAlpha"/>
<feOffset dy="1.1773"/>
<feGaussianBlur stdDeviation="0.588648"/>
<feComposite in2="hardAlpha" operator="arithmetic" k2="-1" k3="1"/>
<feColorMatrix type="matrix" values="0 0 0 0 0 0 0 0 0 0 0 0 0 0 0 0 0 0 0.25 0"/>
<feBlend mode="normal" in2="shape" result="effect2_innerShadow_2455_10064"/>
</filter>
<linearGradient id="paint0_linear_2455_10064" x1="12.5957" y1="-15.3048" x2="87.9426" y2="124.499" gradientUnits="userSpaceOnUse">
<stop stop-color="#00B8B0"/>
<stop offset="1" stop-color="#016268"/>
</linearGradient>
</defs>
</svg>
